<svg xmlns="http://www.w3.org/2000/svg" width="2048" height="2048" viewBox="0 0 2048 2048" version="1.1"><path d="M 1005.299 670.470 C 996.264 674.399, 986.803 689.745, 984.783 703.750 C 982.585 718.983, 986.025 732.544, 996.049 748.171 C 1004.113 760.742, 1005.979 765.457, 1005.990 773.290 C 1006.001 780.583, 1004.065 785.825, 1000.004 789.498 C 989.723 798.796, 996.791 815.920, 1009.912 813.500 C 1017.210 812.154, 1028.048 797.437, 1030.921 784.972 C 1031.487 782.512, 1031.962 776.811, 1031.976 772.302 C 1032.009 760.937, 1028.783 751.257, 1020.360 737.447 C 1012.228 724.115, 1009.997 718.574, 1010.010 711.739 C 1010.021 705.635, 1013.310 697.806, 1017.463 694 C 1025.517 686.617, 1024.641 674.905, 1015.717 670.670 C 1011.498 668.668, 1009.530 668.630, 1005.299 670.470 M 933.915 691.278 C 929.339 694.362, 923.684 702.697, 921.538 709.520 C 920.178 713.842, 919.878 717.357, 920.230 724.816 C 920.772 736.319, 922.733 742.036, 930.073 753.516 C 937.007 764.359, 939.204 769.591, 939.306 775.500 C 939.396 780.673, 938.739 782.302, 933.250 790.524 C 929.511 796.124, 929.204 799.520, 931.950 804.902 C 933.949 808.820, 938.873 812, 942.941 812 C 949.292 812, 957.685 803.683, 962.112 793 C 963.997 788.454, 964.401 785.593, 964.446 776.500 C 964.511 763.231, 962.869 757.407, 955.735 745.607 C 943.448 725.284, 942.538 720.333, 949.544 711.947 C 953.675 707.003, 954.741 702.233, 952.834 697.223 C 949.953 689.655, 940.658 686.734, 933.915 691.278 M 1066.457 690.863 C 1062.066 693.541, 1058.122 698.571, 1054.590 706 C 1051.729 712.019, 1051.504 713.277, 1051.553 723 C 1051.616 735.374, 1053.301 740.608, 1061.035 752.456 C 1067.808 762.832, 1069.936 767.252, 1070.644 772.421 C 1071.549 779.019, 1070.429 782.983, 1065.995 788.883 C 1062.907 792.994, 1062 795.097, 1062 798.150 C 1062 806.200, 1066.940 811.006, 1075.200 810.993 C 1082.411 810.982, 1087.725 806.076, 1093.226 794.347 C 1095.997 788.440, 1096.492 786.158, 1096.836 777.725 C 1097.302 766.291, 1095.110 757.805, 1089.213 748.213 C 1078.670 731.067, 1077.618 728.861, 1077.195 723.014 C 1076.798 717.533, 1076.957 717.054, 1080.437 713.201 C 1082.450 710.974, 1084.518 707.679, 1085.034 705.881 C 1088.161 694.980, 1075.926 685.089, 1066.457 690.863 M 740.304 873.956 C 733.444 878.139, 733.824 873.236, 734.273 951.675 C 734.713 1028.772, 734.701 1028.576, 741.052 1060.500 C 757.041 1140.875, 796.445 1206.131, 856.524 1251.728 C 878.145 1268.137, 909.491 1284.210, 934.856 1291.894 C 938.901 1293.119, 941.959 1294.374, 941.651 1294.683 C 941.342 1294.991, 914.076 1295.165, 881.059 1295.068 C 814.163 1294.873, 816.217 1294.676, 811.895 1301.670 C 809.300 1305.869, 809.628 1313.262, 812.589 1317.307 C 816.960 1323.278, 807.541 1322.977, 975.694 1322.528 C 1060.287 1322.302, 1143.615 1322.091, 1160.868 1322.058 L 1192.235 1322 1196.118 1318.118 C 1199.683 1314.552, 1200 1313.788, 1200 1308.753 C 1200 1304.707, 1199.453 1302.574, 1197.912 1300.615 C 1193.331 1294.791, 1194.999 1294.937, 1133.744 1295.001 C 1102.810 1295.033, 1075.250 1295.021, 1072.500 1294.975 C 1067.613 1294.892, 1067.805 1294.782, 1081 1290.114 C 1096.371 1284.677, 1104.225 1281.413, 1115.152 1275.922 C 1147.017 1259.908, 1179.631 1232.947, 1204.434 1202.118 C 1211.489 1193.349, 1228.487 1168.191, 1229.488 1165.038 C 1229.963 1163.540, 1231.978 1163.219, 1244.269 1162.682 C 1274.240 1161.371, 1301.646 1151.431, 1326.267 1132.944 C 1352.581 1113.185, 1369.318 1088.512, 1377.782 1057 C 1380.057 1048.530, 1380.335 1045.602, 1380.340 1030 C 1380.345 1013.775, 1380.146 1011.844, 1377.607 1003.500 C 1365.689 964.335, 1333.006 941.221, 1288.750 940.661 L 1276 940.500 1276 911.651 C 1276 879.661, 1275.647 877.585, 1269.580 873.886 C 1266.587 872.061, 1259.087 872.007, 1005 872.007 C 747.563 872.007, 743.450 872.038, 740.304 873.956 M 761 948.300 C 761 1021.523, 763.596 1044.747, 776.673 1088.500 C 797.489 1158.151, 844.254 1217.260, 903.242 1248.479 C 936.377 1266.015, 968.786 1274.314, 1004.500 1274.407 C 1035.252 1274.488, 1062.586 1268.842, 1091 1256.542 C 1130.246 1239.553, 1169.201 1206.144, 1195.986 1166.500 C 1217.089 1135.267, 1234.635 1091.922, 1242.074 1052.647 C 1246.987 1026.710, 1247.531 1016.837, 1248.404 937.750 L 1248.820 900 1004.910 900 L 761 900 761 948.300 M 1282.405 968.794 L 1276.309 969.087 1275.615 991.794 C 1274.800 1018.438, 1273.848 1029.104, 1270.454 1049.622 C 1266.109 1075.887, 1260.348 1096.904, 1250.803 1121.313 C 1248.048 1128.360, 1245.981 1134.314, 1246.211 1134.544 C 1246.441 1134.775, 1250.728 1134.300, 1255.736 1133.490 C 1289.426 1128.041, 1318.625 1109.255, 1337.604 1080.817 C 1350.681 1061.224, 1356.714 1035.295, 1352.550 1016.581 C 1345.587 985.283, 1318.808 967.040, 1282.405 968.794 M 1034.096 980.211 C 1032.774 980.920, 1030.818 982.679, 1029.749 984.119 C 1028.143 986.283, 1009.444 1046.917, 981.829 1139.500 C 975.444 1160.908, 974.787 1163.734, 975.587 1166.365 C 977.353 1172.173, 983.902 1175.642, 990 1174 C 994.980 1172.659, 996.461 1170.507, 999.634 1160 C 1001.045 1155.325, 1006.244 1138.225, 1011.185 1122 C 1016.127 1105.775, 1023.937 1079.900, 1028.541 1064.500 C 1033.145 1049.100, 1039.852 1026.825, 1043.444 1015 C 1047.037 1003.175, 1049.982 991.820, 1049.988 989.766 C 1050.012 982.231, 1040.733 976.651, 1034.096 980.211 M 932.500 1008.328 C 930.300 1009.595, 924.450 1013.256, 919.500 1016.463 C 914.550 1019.670, 894.975 1031.943, 876 1043.737 C 857.025 1055.530, 840.487 1066.289, 839.250 1067.646 C 837.321 1069.759, 837 1071.221, 837 1077.881 C 837 1087.776, 835.045 1085.809, 860.500 1101.520 C 866 1104.914, 882.875 1115.482, 898 1125.005 C 932.211 1146.543, 934.726 1147.960, 938.800 1147.982 C 948.182 1148.033, 954.025 1138.368, 949.245 1130.702 C 948.108 1128.879, 933.764 1119.287, 908.102 1103.188 C 886.433 1089.594, 868.658 1078.079, 868.602 1077.599 C 868.506 1076.779, 877.946 1070.652, 928.241 1038.890 C 947.624 1026.650, 949.058 1025.540, 950.139 1021.929 C 951.680 1016.787, 949.668 1011.367, 945.067 1008.266 C 940.816 1005.402, 937.553 1005.418, 932.500 1008.328 M 1081.299 1007.908 C 1077.698 1010.161, 1075 1014.657, 1075 1018.403 C 1075 1022.895, 1077.202 1025.898, 1083.402 1029.862 C 1088.090 1032.860, 1143.017 1067.606, 1155.750 1075.628 C 1156.987 1076.408, 1158 1077.381, 1158 1077.789 C 1158 1078.198, 1155.638 1079.947, 1152.750 1081.676 C 1134.217 1092.774, 1080.983 1126.198, 1078.500 1128.296 C 1075.818 1130.562, 1075.500 1131.431, 1075.500 1136.497 C 1075.500 1141.634, 1075.806 1142.437, 1078.766 1145.082 C 1082.571 1148.482, 1087.311 1148.924, 1092.300 1146.346 C 1094.060 1145.436, 1107.875 1137.029, 1123 1127.664 C 1138.125 1118.299, 1157.700 1106.221, 1166.500 1100.825 C 1175.300 1095.430, 1183.963 1089.724, 1185.750 1088.147 C 1188.796 1085.460, 1189 1084.868, 1189 1078.705 C 1189 1075.089, 1188.582 1071.032, 1188.072 1069.690 C 1187.429 1067.997, 1180.766 1063.268, 1166.322 1054.253 C 1154.870 1047.105, 1133.179 1033.511, 1118.121 1024.044 C 1103.055 1014.573, 1089.338 1006.624, 1087.621 1006.368 C 1085.573 1006.064, 1083.399 1006.594, 1081.299 1007.908" stroke="none" fill="#34251c" fill-rule="evenodd"/><path d="M 744 870.840 C 740.009 871.384, 734.990 875.858, 732.898 880.737 C 731.052 885.045, 730.983 887.663, 731.339 940.371 C 731.717 996.337, 733.086 1032.423, 734.964 1035.932 C 735.534 1036.997, 736 1039.897, 736 1042.375 C 736 1044.854, 736.391 1047.124, 736.869 1047.419 C 737.347 1047.715, 738.056 1052.010, 738.443 1056.965 C 738.831 1061.920, 739.565 1066.231, 740.074 1066.546 C 740.583 1066.861, 741 1068.415, 741 1070 C 741 1071.585, 741.400 1073.129, 741.890 1073.432 C 742.379 1073.734, 743.016 1075.448, 743.306 1077.241 C 744.288 1083.310, 746.076 1090.492, 747.040 1092.236 C 747.568 1093.191, 748 1094.852, 748 1095.927 C 748 1097.002, 748.398 1098.128, 748.885 1098.429 C 749.371 1098.729, 750.081 1101.054, 750.462 1103.595 C 750.843 1106.136, 751.916 1109.629, 752.847 1111.357 C 753.778 1113.086, 755.411 1117.200, 756.477 1120.500 C 757.542 1123.800, 759.446 1128.387, 760.707 1130.692 C 761.968 1132.998, 763 1135.586, 763 1136.442 C 763 1137.299, 763.450 1138, 764 1138 C 764.550 1138, 765 1138.619, 765 1139.375 C 765 1141.766, 778.989 1168.170, 782.312 1172.051 C 783.240 1173.136, 784 1174.385, 784 1174.827 C 784 1175.998, 796.312 1193.299, 803.230 1201.849 C 816.418 1218.148, 830.035 1231.771, 846 1244.639 C 847.925 1246.190, 850.179 1248.200, 851.008 1249.104 C 852.429 1250.653, 869.360 1262.152, 877 1266.756 C 884.575 1271.321, 896.853 1277.999, 897.654 1277.991 C 898.119 1277.985, 896.475 1276.809, 894 1275.377 C 874.749 1264.238, 865.272 1258.281, 857.500 1252.434 C 796.844 1206.805, 757.137 1141.360, 741.052 1060.500 C 734.701 1028.576, 734.713 1028.772, 734.273 951.675 C 733.824 873.236, 733.444 878.139, 740.304 873.956 C 743.450 872.038, 747.563 872.007, 1005 872.007 C 1259.087 872.007, 1266.587 872.061, 1269.580 873.886 C 1275.654 877.590, 1276 879.636, 1276 911.901 L 1276 941 1279.250 940.900 C 1282.248 940.808, 1282.307 940.747, 1280 940.106 L 1277.500 939.412 1277 908.628 L 1276.500 877.844 1272.765 874.422 C 1270.686 872.518, 1267.803 870.909, 1266.265 870.794 C 1261.478 870.437, 746.626 870.483, 744 870.840 M 761 948.300 C 761 1021.523, 763.596 1044.747, 776.673 1088.500 C 797.489 1158.151, 844.254 1217.260, 903.242 1248.479 C 936.377 1266.015, 968.786 1274.314, 1004.500 1274.407 C 1035.252 1274.488, 1062.586 1268.842, 1091 1256.542 C 1130.246 1239.553, 1169.201 1206.144, 1195.986 1166.500 C 1217.089 1135.267, 1234.635 1091.922, 1242.074 1052.647 C 1246.987 1026.710, 1247.531 1016.837, 1248.404 937.750 L 1248.820 900 1004.910 900 L 761 900 761 948.300 M 1299 941.029 C 1322.893 943.418, 1343.665 953.276, 1358.646 969.337 C 1366.758 978.034, 1373.619 990.396, 1377.607 1003.500 C 1380.146 1011.844, 1380.345 1013.775, 1380.340 1030 C 1380.333 1049.250, 1378.897 1057.011, 1372.072 1074.673 C 1361.219 1102.760, 1335.888 1130.054, 1305.901 1145.972 C 1300.730 1148.716, 1296.896 1150.970, 1297.379 1150.981 C 1297.863 1150.991, 1302.138 1148.954, 1306.879 1146.452 C 1332.377 1133.001, 1356.094 1109.789, 1367.625 1087 C 1368.599 1085.075, 1369.696 1083.275, 1370.063 1083 C 1370.430 1082.725, 1371.045 1081.375, 1371.430 1080 C 1371.815 1078.625, 1372.977 1075.700, 1374.012 1073.500 C 1376.765 1067.651, 1379 1060.330, 1379 1057.165 C 1379 1055.644, 1379.401 1053.973, 1379.891 1053.450 C 1382.884 1050.260, 1382.902 1010.665, 1379.912 1007.550 C 1379.410 1007.028, 1379 1005.574, 1379 1004.320 C 1379 999.746, 1372.416 984.746, 1367.230 977.506 C 1356.455 962.462, 1335.881 947.454, 1322 944.511 C 1320.075 944.103, 1318.050 943.426, 1317.500 943.008 C 1315.816 941.725, 1303.678 939.992, 1297.418 940.140 L 1291.500 940.280 1299 941.029 M 1275.634 991.250 C 1275.259 1003.487, 1274.710 1016.650, 1274.413 1020.500 C 1273.993 1025.939, 1274.125 1027.102, 1275.004 1025.717 C 1276.127 1023.949, 1277.880 969, 1276.814 969 C 1276.540 969, 1276.009 979.013, 1275.634 991.250 M 1322.306 977.155 C 1331.042 982.188, 1337.344 987.829, 1341.686 994.500 C 1346.772 1002.317, 1348 1004.647, 1348 1006.486 C 1348 1007.319, 1348.498 1008, 1349.107 1008 C 1351.885 1008, 1343.094 993.151, 1336.518 986.738 C 1331.363 981.710, 1322.704 975.806, 1318.500 974.453 C 1317.400 974.099, 1319.113 975.315, 1322.306 977.155 M 1034.096 980.211 C 1032.774 980.920, 1030.818 982.679, 1029.749 984.119 C 1028.143 986.283, 1009.444 1046.917, 981.829 1139.500 C 975.444 1160.908, 974.787 1163.734, 975.587 1166.365 C 977.353 1172.173, 983.902 1175.642, 990 1174 C 994.980 1172.659, 996.461 1170.507, 999.634 1160 C 1001.045 1155.325, 1006.244 1138.225, 1011.185 1122 C 1016.127 1105.775, 1023.937 1079.900, 1028.541 1064.500 C 1033.145 1049.100, 1039.852 1026.825, 1043.444 1015 C 1047.037 1003.175, 1049.982 991.820, 1049.988 989.766 C 1050.012 982.231, 1040.733 976.651, 1034.096 980.211 M 932.500 1008.328 C 930.300 1009.595, 924.450 1013.256, 919.500 1016.463 C 914.550 1019.670, 894.975 1031.943, 876 1043.737 C 857.025 1055.530, 840.487 1066.289, 839.250 1067.646 C 837.321 1069.759, 837 1071.221, 837 1077.881 C 837 1087.776, 835.045 1085.809, 860.500 1101.520 C 866 1104.914, 882.875 1115.482, 898 1125.005 C 932.211 1146.543, 934.726 1147.960, 938.800 1147.982 C 948.182 1148.033, 954.025 1138.368, 949.245 1130.702 C 948.108 1128.879, 933.764 1119.287, 908.102 1103.188 C 886.433 1089.594, 868.658 1078.079, 868.602 1077.599 C 868.506 1076.779, 877.946 1070.652, 928.241 1038.890 C 947.624 1026.650, 949.058 1025.540, 950.139 1021.929 C 951.680 1016.787, 949.668 1011.367, 945.067 1008.266 C 940.816 1005.402, 937.553 1005.418, 932.500 1008.328 M 1081.299 1007.908 C 1077.698 1010.161, 1075 1014.657, 1075 1018.403 C 1075 1022.895, 1077.202 1025.898, 1083.402 1029.862 C 1088.090 1032.860, 1143.017 1067.606, 1155.750 1075.628 C 1156.987 1076.408, 1158 1077.381, 1158 1077.789 C 1158 1078.198, 1155.638 1079.947, 1152.750 1081.676 C 1134.217 1092.774, 1080.983 1126.198, 1078.500 1128.296 C 1075.818 1130.562, 1075.500 1131.431, 1075.500 1136.497 C 1075.500 1141.634, 1075.806 1142.437, 1078.766 1145.082 C 1082.571 1148.482, 1087.311 1148.924, 1092.300 1146.346 C 1094.060 1145.436, 1107.875 1137.029, 1123 1127.664 C 1138.125 1118.299, 1157.700 1106.221, 1166.500 1100.825 C 1175.300 1095.430, 1183.963 1089.724, 1185.750 1088.147 C 1188.796 1085.460, 1189 1084.868, 1189 1078.705 C 1189 1075.089, 1188.582 1071.032, 1188.072 1069.690 C 1187.429 1067.997, 1180.766 1063.268, 1166.322 1054.253 C 1154.870 1047.105, 1133.179 1033.511, 1118.121 1024.044 C 1103.055 1014.573, 1089.338 1006.624, 1087.621 1006.368 C 1085.573 1006.064, 1083.399 1006.594, 1081.299 1007.908 M 1350.510 1013 C 1351.931 1028.552, 1351.998 1033.020, 1350.953 1042.234 C 1350.312 1047.880, 1349.385 1052.928, 1348.894 1053.450 C 1348.402 1053.972, 1348 1055.408, 1348 1056.641 C 1348 1057.874, 1347.585 1059.139, 1347.077 1059.452 C 1346.569 1059.766, 1345.838 1061.480, 1345.453 1063.261 C 1345.067 1065.043, 1343.981 1067.625, 1343.038 1069 C 1342.096 1070.375, 1341.023 1072.175, 1340.654 1073 C 1335.757 1083.943, 1319.359 1102.408, 1306.500 1111.461 C 1294.083 1120.202, 1278.095 1127.606, 1266.497 1129.986 C 1260.077 1131.304, 1256.106 1132.913, 1259.138 1132.970 C 1262.045 1133.024, 1278.278 1127.963, 1286.189 1124.536 C 1310.612 1113.957, 1334.481 1090.860, 1345.027 1067.601 C 1351.229 1053.923, 1353.288 1044.726, 1353.335 1030.500 C 1353.367 1020.861, 1352.954 1016.337, 1351.738 1013 L 1350.098 1008.500 1350.510 1013 M 1268.542 1060.567 C 1266.527 1074.008, 1257.345 1105.612, 1250.953 1121.114 C 1249.320 1125.075, 1248.181 1128.514, 1248.422 1128.755 C 1248.932 1129.265, 1253 1120.632, 1253 1119.041 C 1253 1118.454, 1253.450 1117.079, 1254 1115.986 C 1254.550 1114.894, 1255.450 1113.106, 1256 1112.014 C 1256.550 1110.921, 1257 1109.397, 1257 1108.628 C 1257 1107.858, 1257.672 1105.940, 1258.494 1104.364 C 1259.315 1102.789, 1259.990 1100.514, 1259.994 1099.309 C 1259.997 1098.104, 1260.450 1096.840, 1261 1096.500 C 1261.550 1096.160, 1262 1094.810, 1262 1093.500 C 1262 1092.190, 1262.408 1090.866, 1262.906 1090.558 C 1263.405 1090.250, 1264.122 1087.749, 1264.500 1085 C 1264.878 1082.251, 1265.595 1079.750, 1266.094 1079.442 C 1266.592 1079.134, 1267 1077.199, 1267 1075.141 C 1267 1073.083, 1267.411 1070.973, 1267.913 1070.450 C 1268.887 1069.436, 1270.577 1056, 1269.730 1056 C 1269.453 1056, 1268.919 1058.055, 1268.542 1060.567 M 1267 1160.031 C 1262.875 1161.009, 1257.475 1161.904, 1255 1162.020 C 1252.525 1162.137, 1251.400 1162.460, 1252.500 1162.738 C 1255.105 1163.397, 1270.636 1161.013, 1274.500 1159.361 C 1278.483 1157.658, 1276.124 1157.869, 1267 1160.031 M 1229.536 1164.886 C 1228.496 1168.163, 1211.655 1193.142, 1204.434 1202.118 C 1189.731 1220.394, 1170.869 1238.686, 1152.500 1252.484 C 1139.619 1262.160, 1131.580 1267.225, 1116.500 1275.163 C 1110.450 1278.347, 1106.019 1280.964, 1106.654 1280.976 C 1107.917 1281.002, 1122.950 1273.302, 1129.796 1269.122 C 1134.246 1266.405, 1148.879 1256.676, 1155 1252.365 C 1166.249 1244.441, 1197.136 1214.189, 1205.154 1203.243 C 1207.467 1200.084, 1209.661 1197.275, 1210.028 1197 C 1211.315 1196.036, 1221 1181.983, 1221 1181.080 C 1221 1180.578, 1221.338 1180.017, 1221.750 1179.833 C 1222.683 1179.419, 1227.992 1171.325, 1228.022 1170.271 C 1228.034 1169.847, 1228.899 1168.388, 1229.943 1167.029 C 1231.627 1164.837, 1232.840 1164.488, 1240.671 1163.937 L 1249.500 1163.317 1239.817 1163.158 C 1231.131 1163.016, 1230.073 1163.194, 1229.536 1164.886 M 845.500 1293.928 C 820.064 1294.448, 817.204 1294.679, 814.262 1296.458 C 810.963 1298.454, 807 1305.299, 807 1309.003 C 807 1310.805, 808.647 1314.647, 810 1316 C 810.275 1316.275, 810.966 1317.348, 811.536 1318.384 C 812.106 1319.421, 814.581 1321.083, 817.036 1322.079 C 821.285 1323.801, 830.272 1323.891, 1004 1323.939 C 1130.440 1323.973, 1187.681 1323.661, 1190.344 1322.921 C 1192.459 1322.334, 1195.779 1320.396, 1197.723 1318.615 C 1200.708 1315.879, 1201.337 1314.545, 1201.771 1310.030 C 1202.401 1303.473, 1200.330 1299.044, 1195.097 1295.759 C 1191.572 1293.545, 1190.852 1293.496, 1159 1293.314 C 1141.125 1293.211, 1117.275 1293.479, 1106 1293.908 C 1088.831 1294.562, 1093.997 1294.714, 1137.800 1294.844 C 1194.582 1295.013, 1193.418 1294.902, 1197.912 1300.615 C 1199.453 1302.574, 1200 1304.707, 1200 1308.753 C 1200 1313.788, 1199.683 1314.552, 1196.118 1318.118 L 1192.235 1322 1160.868 1322.058 C 1143.615 1322.091, 1060.287 1322.302, 975.694 1322.528 C 807.541 1322.977, 816.960 1323.278, 812.589 1317.307 C 809.628 1313.262, 809.300 1305.869, 811.895 1301.670 C 816.095 1294.875, 814.948 1295, 873.068 1295 C 901.814 1295, 925.146 1294.831, 924.917 1294.625 C 924.040 1293.836, 872.251 1293.381, 845.500 1293.928" stroke="none" fill="#ca9b5f" fill-rule="evenodd"/></svg>