<svg xmlns="http://www.w3.org/2000/svg" version="1.1" xmlns:xlink="http://www.w3.org/1999/xlink" xmlns:svgjs="http://svgjs.dev/svgjs" width="2000" height="671" viewBox="0 0 2000 671"><g transform="matrix(1,0,0,1,-1.2121212121212466,-0.7363844601733831)"><svg viewBox="0 0 396 133" data-background-color="#ffffff" preserveAspectRatio="xMidYMid meet" height="671" width="2000" xmlns="http://www.w3.org/2000/svg" xmlns:xlink="http://www.w3.org/1999/xlink"><g id="tight-bounds" transform="matrix(1,0,0,1,0.2400000000000091,0.14595996006417522)"><svg viewBox="0 0 395.52 132.70808007987162" height="132.70808007987162" width="395.52"><g><svg viewBox="0 0 533.154330123399 178.8882674376677" height="132.70808007987162" width="395.52"><g><rect width="4.9450500565855355" height="178.8882674376677" x="119.74412285062098" y="0" fill="#ffffff" opacity="1" stroke-width="0" stroke="transparent" fill-opacity="1" class="rect-r$-0" data-fill-palette-color="primary" rx="1%" id="r$-0" data-palette-color="#ffffff"></rect></g><g transform="matrix(1,0,0,1,137.63433012339902,0.4449956901434433)"><svg viewBox="0 0 395.52 177.99827605738082" height="177.99827605738082" width="395.52"><g id="textblocktransform"><svg viewBox="0 0 395.52 177.99827605738082" height="177.99827605738082" width="395.52" id="textblock"><g><svg viewBox="0 0 395.52 177.99827605738082" height="177.99827605738082" width="395.52"><g transform="matrix(1,0,0,1,0,0)"><svg width="395.52" viewBox="0.8300000000000001 -36.06 264.11 115.71000000000001" height="177.99827605738082" data-palette-color="#ffffff"><svg></svg><svg></svg><svg></svg><g class="wordmark-text-0" data-fill-palette-color="primary" id="text-0"><path d="M22.73 0h-7.3l-11.43-30.86-3.17-0.39v-4.3h14.14v4.3l-3.2 0.49 6.98 20.97 0.54 1.95h0.14l0.52-1.9 6.98-21.02-3.74-0.49v-4.3h13.48v4.3l-3.22 0.39zM53.54 0h-14.7v-4.27l3.79-0.73v-25.52l-3.79-0.73v-4.3h14.7v4.3l-3.78 0.73v25.52l3.78 0.73zM87.23-30.59l-21.53 21.87-3.69-4.22 17.41-17.94 0.05-0.08-3.52-0.29v-4.3h14.63v4.3zM70.8 0h-14.53v-4.27l3.79-0.73v-25.52l-3.79-0.73v-4.3h14.53v4.3l-3.61 0.73v25.52l3.61 0.73zM91.85 0h-15.12v-4.27l3.32-0.3h0.03l-9.04-12.45 4.72-4.71 12.59 16.85 3.5 0.61zM116.94 0h-14.77v-4.27l3.81-0.73v-25.05h-6.47l-0.39 4.24h-5.39v-9.74h31.71v9.74h-5.42l-0.39-4.24h-6.52v25.05l3.83 0.73zM143.51 0.51v0c-2.393 0-4.577-0.447-6.55-1.34-1.967-0.893-3.663-2.15-5.09-3.77-1.42-1.62-2.513-3.523-3.28-5.71-0.767-2.193-1.15-4.59-1.15-7.19v0-0.54c0-2.587 0.383-4.977 1.15-7.17 0.767-2.187 1.857-4.093 3.27-5.72 1.413-1.627 3.107-2.89 5.08-3.79 1.967-0.893 4.147-1.34 6.54-1.34v0c2.407 0 4.603 0.447 6.59 1.34 1.987 0.9 3.697 2.163 5.13 3.79 1.433 1.627 2.537 3.533 3.31 5.72 0.773 2.193 1.16 4.583 1.16 7.17v0 0.54c0 2.6-0.387 4.997-1.16 7.19-0.773 2.187-1.877 4.09-3.31 5.71-1.433 1.62-3.137 2.877-5.11 3.77-1.98 0.893-4.173 1.34-6.58 1.34zM143.51-5.03v0c2.013 0 3.69-0.52 5.03-1.56 1.333-1.04 2.337-2.497 3.01-4.37 0.673-1.873 1.01-4.053 1.01-6.54v0-0.59c0-2.46-0.34-4.62-1.02-6.48-0.687-1.867-1.7-3.32-3.04-4.36-1.347-1.04-3.02-1.56-5.02-1.56v0c-1.987 0-3.637 0.517-4.95 1.55-1.32 1.033-2.31 2.477-2.97 4.33-0.66 1.853-0.99 4.027-0.99 6.52v0 0.59c0 2.487 0.33 4.667 0.99 6.54 0.66 1.873 1.653 3.33 2.98 4.37 1.327 1.04 2.983 1.56 4.97 1.56zM177.25 0h-14.73v-4.27l3.79-0.73v-25.52l-3.79-0.73v-4.3h16.85c2.733 0 5.077 0.423 7.03 1.27 1.953 0.847 3.457 2.06 4.51 3.64 1.047 1.58 1.57 3.477 1.57 5.69v0c0 2.08-0.52 3.943-1.56 5.59-1.04 1.647-2.49 2.94-4.35 3.88-1.853 0.947-3.993 1.427-6.42 1.44v0h-6.71v9.04l3.81 0.73zM194.04 0h-8.64l-5.98-15.36 6.42-1.58 5.18 11.96 3.02 0.71zM173.44-30.05v10.52h5.81c2.047 0 3.58-0.437 4.6-1.31 1.02-0.867 1.53-2.13 1.53-3.79v0c0-1.647-0.507-2.963-1.52-3.95-1.007-0.98-2.503-1.47-4.49-1.47v0z" fill="#ffffff" fill-rule="nonzero" stroke="none" stroke-width="1" stroke-linecap="butt" stroke-linejoin="miter" stroke-miterlimit="10" stroke-dasharray="" stroke-dashoffset="0" font-family="none" font-weight="none" font-size="none" text-anchor="none" style="mix-blend-mode: normal" data-fill-palette-color="primary" opacity="1"></path><path transform="translate(0,39.57)" d="M17.9 0.51v0c-3.533 0-6.547-0.73-9.04-2.19-2.487-1.467-4.393-3.503-5.72-6.11-1.327-2.6-1.99-5.62-1.99-9.06v0-1.22c0-3.547 0.66-6.67 1.98-9.37 1.313-2.7 3.18-4.813 5.6-6.34 2.413-1.52 5.273-2.28 8.58-2.28v0c2.553 0 4.953 0.35 7.2 1.05 2.247 0.7 4.2 1.75 5.86 3.15v0 7.89h-5.27l-1-4.77c-0.64-0.553-1.497-0.997-2.57-1.33-1.073-0.333-2.3-0.5-3.68-0.5v0c-1.987 0-3.7 0.523-5.14 1.57-1.44 1.04-2.543 2.497-3.31 4.37-0.767 1.867-1.15 4.037-1.15 6.51v0 1.27c0 2.413 0.38 4.51 1.14 6.29 0.753 1.78 1.863 3.16 3.33 4.14 1.467 0.973 3.267 1.46 5.4 1.46v0c1.253 0 2.403-0.117 3.45-0.35 1.047-0.233 1.913-0.523 2.6-0.87v0-6.03l-5.08-0.39v-5h12.23v14.38c-1.573 1.12-3.473 2.023-5.7 2.71-2.22 0.68-4.793 1.02-7.72 1.02zM51.17 0.51v0c-2.393 0-4.573-0.447-6.54-1.34-1.973-0.893-3.67-2.15-5.09-3.77-1.427-1.62-2.523-3.523-3.29-5.71-0.76-2.193-1.14-4.59-1.14-7.19v0-0.54c0-2.587 0.38-4.977 1.14-7.17 0.767-2.187 1.86-4.093 3.28-5.72 1.413-1.627 3.103-2.89 5.07-3.79 1.973-0.893 4.157-1.34 6.55-1.34v0c2.407 0 4.603 0.447 6.59 1.34 1.987 0.9 3.697 2.163 5.13 3.79 1.427 1.627 2.527 3.533 3.3 5.72 0.773 2.193 1.16 4.583 1.16 7.17v0 0.54c0 2.6-0.387 4.997-1.16 7.19-0.773 2.187-1.873 4.09-3.3 5.71-1.433 1.62-3.14 2.877-5.12 3.77-1.973 0.893-4.167 1.34-6.58 1.34zM51.17-5.03v0c2.02 0 3.697-0.52 5.03-1.56 1.333-1.04 2.34-2.497 3.02-4.37 0.673-1.873 1.01-4.053 1.01-6.54v0-0.59c0-2.46-0.343-4.62-1.03-6.48-0.68-1.867-1.693-3.32-3.04-4.36-1.34-1.04-3.01-1.56-5.01-1.56v0c-1.987 0-3.64 0.517-4.96 1.55-1.32 1.033-2.307 2.477-2.96 4.33-0.66 1.853-0.99 4.027-0.99 6.52v0 0.59c0 2.487 0.33 4.667 0.99 6.54 0.653 1.873 1.643 3.33 2.97 4.37 1.327 1.04 2.983 1.56 4.97 1.56zM84.91 0h-14.72v-4.27l3.78-0.73v-25.52l-3.78-0.73v-4.3h3.78 7.23l15.48 24.66 0.15-0.02v-19.61l-4.54-0.73v-4.3h10.91 3.81v4.3l-3.81 0.73v30.52h-6.89l-15.82-24.41-0.14 0.02v19.39l4.56 0.73zM136.43 0h-26.64v-4.69l17.33-25.36h-10.81l-0.56 4.54h-5.45l0.3-10.04h25.29v4.54l-17.41 25.54h12.38l0.59-4.54h5.42zM151.03 0h-12.11v-4.27l2.54-0.37 11.3-30.91h7.3l11.23 30.91 2.54 0.37v4.27h-12.11v-4.27l2.46-0.44-1.56-4.88h-12.5l-1.56 4.88 2.47 0.44zM155.93-26.95l-4.12 12.11h9.13l-4.15-12.19-0.34-1.07h-0.15zM202.93 0h-26.73v-4.27l3.78-0.73v-25.52l-3.78-0.73v-4.3h3.78 7.13 4.3v4.3l-4.3 0.73v25.05h10.03l0.35-5.2h5.44zM233.62 0h-28.13v-4.27l3.79-0.73v-25.52l-3.79-0.73v-4.3h27.59v9.6h-5.47l-0.32-4.1h-10.88v8.93h12.03v5.49h-12.03v10.16h11.47l0.32-4.25h5.42zM264.5 0h-26.63v-4.69l17.33-25.36h-10.82l-0.56 4.54h-5.44l0.29-10.04h25.29v4.54l-17.4 25.54h12.38l0.58-4.54h5.42z" fill="#ffffff" fill-rule="nonzero" stroke="none" stroke-width="1" stroke-linecap="butt" stroke-linejoin="miter" stroke-miterlimit="10" stroke-dasharray="" stroke-dashoffset="0" font-family="none" font-weight="none" font-size="none" text-anchor="none" style="mix-blend-mode: normal" data-fill-palette-color="primary" opacity="1"></path><path transform="translate(0,79.14)" d="M16.09 0h-14.72v-4.27l3.78-0.73v-25.52l-3.78-0.73v-4.3h3.78 13.14c2.713 0 5.057 0.477 7.03 1.43 1.967 0.953 3.48 2.28 4.54 3.98 1.06 1.7 1.59 3.683 1.59 5.95v0c0 2.26-0.53 4.24-1.59 5.94-1.06 1.7-2.573 3.02-4.54 3.96-1.973 0.933-4.317 1.4-7.03 1.4v0h-6.01v7.89l3.81 0.73zM12.28-30.05v11.67h6.01c1.98 0 3.48-0.543 4.5-1.63 1.02-1.08 1.53-2.46 1.53-4.14v0c0-1.707-0.51-3.117-1.53-4.23-1.02-1.113-2.52-1.67-4.5-1.67v0zM48.41 0h-14.69v-4.27l3.78-0.73v-25.52l-3.78-0.73v-4.3h14.69v4.3l-3.78 0.73v25.52l3.78 0.73zM65.87 0h-14.72v-4.27l3.78-0.73v-25.52l-3.78-0.73v-4.3h3.78 7.23l15.48 24.66 0.14-0.02v-19.61l-4.54-0.73v-4.3h10.92 3.8v4.3l-3.8 0.73v30.52h-6.89l-15.82-24.41-0.15 0.02v19.39l4.57 0.73zM113.26 0h-14.77v-4.27l3.8-0.73v-25.05h-6.46l-0.4 4.24h-5.39v-9.74h31.71v9.74h-5.42l-0.39-4.24h-6.52v25.05l3.84 0.73zM139.82 0.51v0c-2.393 0-4.573-0.447-6.54-1.34-1.973-0.893-3.67-2.15-5.09-3.77-1.427-1.62-2.523-3.523-3.29-5.71-0.767-2.193-1.15-4.59-1.15-7.19v0-0.54c0-2.587 0.383-4.977 1.15-7.17 0.767-2.187 1.857-4.093 3.27-5.72 1.42-1.627 3.113-2.89 5.08-3.79 1.973-0.893 4.153-1.34 6.54-1.34v0c2.413 0 4.613 0.447 6.6 1.34 1.987 0.9 3.693 2.163 5.12 3.79 1.433 1.627 2.537 3.533 3.31 5.72 0.773 2.193 1.16 4.583 1.16 7.17v0 0.54c0 2.6-0.387 4.997-1.16 7.19-0.773 2.187-1.877 4.09-3.31 5.71-1.427 1.62-3.13 2.877-5.11 3.77-1.98 0.893-4.173 1.34-6.58 1.34zM139.82-5.03v0c2.02 0 3.697-0.52 5.03-1.56 1.333-1.04 2.337-2.497 3.01-4.37 0.68-1.873 1.02-4.053 1.02-6.54v0-0.59c0-2.46-0.343-4.62-1.03-6.48-0.68-1.867-1.693-3.32-3.04-4.36-1.34-1.04-3.013-1.56-5.02-1.56v0c-1.98 0-3.63 0.517-4.95 1.55-1.32 1.033-2.31 2.477-2.97 4.33-0.66 1.853-0.99 4.027-0.99 6.52v0 0.59c0 2.487 0.33 4.667 0.99 6.54 0.66 1.873 1.653 3.33 2.98 4.37 1.327 1.04 2.983 1.56 4.97 1.56z" fill="#ffffff" fill-rule="nonzero" stroke="none" stroke-width="1" stroke-linecap="butt" stroke-linejoin="miter" stroke-miterlimit="10" stroke-dasharray="" stroke-dashoffset="0" font-family="none" font-weight="none" font-size="none" text-anchor="none" style="mix-blend-mode: normal" data-fill-palette-color="primary" opacity="1"></path></g></svg></g></svg></g></svg></g></svg></g><g transform="matrix(1,0,0,1,0,0.4449956901434433)"><svg viewBox="0 0 106.79896563442848 177.99827605738082" height="177.99827605738082" width="106.79896563442848"><g><svg xmlns="http://www.w3.org/2000/svg" xmlns:xlink="http://www.w3.org/1999/xlink" version="1.1" x="0" y="0" viewBox="14 2 36 60" style="enable-background:new 0 0 64 64;" xml:space="preserve" height="177.99827605738082" width="106.79896563442848" class="icon-icon-0" data-fill-palette-color="accent" id="icon-0"><path d="M45 36h-3v-4H14v25c0 2.8 2.2 5 5 5h18c2.8 0 5-2.2 5-5v-3h3c2.8 0 5-2.2 5-5v-8C50 38.2 47.8 36 45 36zM23.9 54.5l-1.7 1L17.8 48l4.3-7.5 1.7 1L20.2 48 23.9 54.5zM27 55.3L25 54.7l4-14 1.9 0.5L27 55.3zM33.9 55.5l-1.7-1 3.7-6.5-3.7-6.5 1.7-1 4.3 7.5L33.9 55.5zM48 49c0 1.7-1.3 3-3 3h-3V38h3c1.7 0 3 1.3 3 3V49z" fill="#79a672" data-fill-palette-color="accent"></path><g fill="#79a672" data-fill-palette-color="accent"><path d="M38 30h-2v-2c0-1.1-0.9-2-2-2H20c-2.2 0-4-1.8-4-4s1.8-4 4-4h14c1.1 0 2-0.9 2-2s-0.9-2-2-2H20c-2.2 0-4-1.8-4-4s1.8-4 4-4h14c1.1 0 2-0.9 2-2V2h2v2c0 2.2-1.8 4-4 4H20c-1.1 0-2 0.9-2 2s0.9 2 2 2h14c2.2 0 4 1.8 4 4s-1.8 4-4 4H20c-1.1 0-2 0.9-2 2s0.9 2 2 2h14c2.2 0 4 1.8 4 4V30z" fill="#79a672" data-fill-palette-color="accent"></path></g></svg></g></svg></g></svg></g><defs></defs></svg><rect width="395.52" height="132.70808007987162" fill="none" stroke="none" visibility="hidden"></rect></g></svg></g></svg>